<svg xmlns="http://www.w3.org/2000/svg" viewBox="130 365 760 285">
<g>
<path d="M 665.00 528.00 L 665.00 597.00 L 638.00 597.00 L 638.00 521.06 C638.00,479.29 638.34,444.98 638.75,444.81 C639.16,444.64 645.24,444.64 652.25,444.81 L 665.00 445.11 L 665.00 502.00 L 678.00 502.00 L 678.00 445.26 L 681.75 444.64 C683.81,444.30 690.00,444.02 695.51,444.01 L 705.51 444.00 L 705.65 520.50 L 705.79 597.00 L 678.00 597.00 L 678.00 528.00 ZM 852.75 547.15 C809.60,547.46 770.52,547.49 747.75,547.23 L 724.00 546.96 L 724.00 524.00 L 783.00 524.00 L 783.00 511.00 L 730.00 511.00 L 730.00 489.00 L 742.07 489.00 C753.10,489.00 754.09,488.85 753.59,487.25 C752.25,482.93 750.31,472.02 750.80,471.54 C751.09,471.24 757.32,471.00 764.65,471.00 C766.17,471.00 767.52,470.99 768.72,470.97 C773.81,470.92 776.18,470.90 777.51,472.07 C778.98,473.37 779.15,476.14 780.31,482.00 L 781.59 488.50 L 798.09 488.77 L 814.58 489.05 L 816.50 480.02 L 818.41 471.00 L 846.28 471.00 L 845.65 475.75 C845.30,478.36 844.73,482.41 844.38,484.75 L 843.74 489.00 L 867.00 489.00 L 867.13 494.75 C867.20,497.91 867.31,502.86 867.38,505.75 L 867.50 510.99 L 840.20 511.00 L 812.90 511.00 L 813.50 523.50 L 873.00 524.03 L 873.00 547.00 ZM 594.50 589.45 C570.47,591.78 558.97,592.63 558.46,592.12 C558.21,591.87 558.00,559.55 558.00,520.31 L 558.00 448.95 L 587.50 449.50 L 588.02 564.00 L 591.76 564.00 C593.82,563.99 602.92,563.10 612.00,562.02 C621.08,560.93 629.29,560.03 630.25,560.02 C631.82,560.00 632.00,561.25 632.00,572.44 L 632.00 584.88 L 627.25 585.49 C624.64,585.82 619.80,586.50 616.50,587.00 C613.20,587.50 603.30,588.60 594.50,589.45 ZM 528.00 541.07 L 528.00 599.00 L 496.00 599.00 L 496.00 566.00 L 393.00 566.00 L 393.00 542.00 L 401.25 541.93 C405.79,541.89 436.16,541.68 468.75,541.46 ZM 868.00 575.02 L 868.00 597.00 L 799.47 597.00 C738.10,597.00 730.87,596.84 730.33,595.43 C729.91,594.33 730.46,558.82 730.97,554.25 C730.99,554.11 737.96,554.00 746.47,554.00 L 761.93 554.00 L 762.50 574.50 ZM 458.61 529.50 C442.16,531.16 437.66,531.33 436.67,530.33 C436.30,529.97 436.00,511.29 436.00,488.83 L 436.00 448.00 L 485.00 448.00 L 485.00 470.00 L 464.30 470.00 L 463.66 479.75 C462.64,495.08 462.84,503.63 464.25,504.76 C465.09,505.43 467.95,505.35 473.00,504.50 C477.12,503.80 482.79,502.95 485.60,502.60 L 490.69 501.97 L 491.33 513.17 C491.69,519.32 491.80,524.53 491.60,524.74 C490.85,525.48 473.24,528.03 458.61,529.50 ZM 518.62 535.37 C507.09,536.18 499.51,536.17 498.67,535.33 C498.30,534.97 498.00,514.27 498.00,489.33 L 498.00 444.00 L 527.95 444.00 L 528.22 459.25 L 528.50 474.50 L 545.00 475.08 L 545.00 500.92 L 527.50 501.50 L 527.52 518.12 L 527.55 534.73 ZM 866.78 455.75 L 867.07 467.00 L 799.20 467.00 C761.87,467.00 731.03,466.70 730.67,466.33 C730.30,465.97 730.00,461.02 730.00,455.33 L 730.00 445.00 L 797.00 444.85 C833.85,444.77 864.56,444.65 865.25,444.60 C866.17,444.53 866.58,447.50 866.78,455.75 ZM 419.74 526.96 C413.88,528.03 403.89,529.22 397.54,529.60 L 386.00 530.29 L 386.00 448.00 L 431.00 448.00 L 431.00 470.00 L 413.00 470.00 L 413.00 487.50 C413.00,501.30 413.28,505.00 414.32,505.00 C415.92,505.00 426.83,503.08 429.25,502.38 C430.85,501.91 431.00,502.89 431.00,513.43 C431.00,519.79 430.86,525.00 430.69,525.00 C430.52,525.00 425.59,525.88 419.74,526.96 Z" fill="rgb(27,41,67)"/>
<path d="M 173.73 614.25 C164.54,605.04 156.36,596.60 155.55,595.50 C154.73,594.39 154.05,591.32 154.03,588.63 C154.00,583.78 154.02,583.75 165.03,572.46 L 176.07 561.16 L 175.78 522.83 L 175.50 484.50 L 168.64 470.56 C158.22,449.39 157.23,445.52 161.02,440.70 C162.14,439.28 165.52,436.91 168.54,435.44 C173.49,433.02 174.85,432.80 182.26,433.20 C192.12,433.74 195.93,435.48 204.68,443.43 C215.27,453.05 221.31,464.30 223.56,478.61 C223.92,480.87 224.60,483.35 225.08,484.11 C225.73,485.15 236.66,474.82 268.23,443.33 C292.68,418.95 312.18,400.29 314.49,399.08 C319.69,396.36 325.31,396.46 331.50,399.38 C337.58,402.24 340.23,405.00 343.07,411.43 C345.54,417.01 345.30,423.55 342.43,429.20 C341.50,431.01 335.96,437.30 330.12,443.16 C324.28,449.02 317.27,456.10 314.54,458.90 L 309.58 464.00 L 313.73 468.25 C318.52,473.15 319.99,476.45 320.02,482.32 C320.03,487.34 320.40,487.94 325.37,490.96 C327.50,492.25 330.54,495.36 332.12,497.85 C334.46,501.54 335.00,503.50 335.00,508.35 L 335.00 514.30 L 340.92 519.90 C351.37,529.78 351.27,538.76 340.44,560.13 C335.67,569.54 312.78,594.12 295.08,608.86 C288.54,614.30 276.36,620.95 267.08,624.14 C264.10,625.17 259.74,627.13 257.40,628.50 L 253.14 631.00 L 221.78 631.00 L 190.42 631.00 L 173.73 614.25 ZM 249.50 616.31 C251.68,614.83 258.08,611.73 263.73,609.43 C269.38,607.13 276.52,603.73 279.59,601.87 C284.99,598.61 302.71,583.26 304.26,580.51 C304.79,579.55 303.93,578.81 301.26,577.93 C294.17,575.62 289.45,571.54 287.05,565.62 C284.97,560.49 284.57,560.10 280.70,559.45 C270.82,557.78 263.84,549.85 263.18,539.54 C262.83,533.94 262.50,533.13 259.93,531.62 C258.36,530.69 255.46,527.95 253.47,525.53 C250.61,522.04 249.75,520.00 249.30,515.58 C248.16,504.59 248.29,504.43 287.87,465.00 C307.46,445.48 324.74,427.98 326.25,426.11 C329.13,422.57 329.78,418.32 327.96,414.93 C327.21,413.52 325.86,413.00 322.99,413.00 C319.14,413.00 318.18,413.88 274.53,457.69 C250.04,482.27 230.00,502.72 230.00,503.13 C230.00,503.54 232.83,508.07 236.29,513.19 C243.74,524.23 246.00,530.50 246.73,542.15 C247.29,551.26 245.30,562.76 242.24,568.10 L 240.74 570.71 L 235.62 568.77 C227.92,565.84 227.93,565.87 230.20,558.31 C231.70,553.33 232.10,549.56 231.84,543.10 C231.42,532.53 228.56,526.05 220.00,516.25 C215.09,510.63 214.11,508.86 213.55,504.56 C211.73,490.72 207.66,473.27 205.02,468.05 C201.47,461.01 193.91,452.50 188.96,449.98 C186.89,448.92 183.24,447.93 180.85,447.78 C176.78,447.52 176.51,447.66 176.62,450.00 C176.68,451.38 178.33,456.10 180.27,460.50 C182.21,464.90 185.22,471.79 186.96,475.81 L 190.12 483.11 L 190.03 523.57 L 189.94 564.03 L 205.72 580.21 C214.40,589.11 226.41,601.48 232.41,607.70 C238.40,613.91 243.81,619.00 244.42,619.00 C245.04,619.00 247.32,617.79 249.50,616.31 ZM 321.24 551.43 C327.43,545.07 332.82,538.99 333.22,537.92 C334.94,533.30 329.36,527.57 325.10,529.59 C324.05,530.09 317.75,535.73 311.10,542.12 C302.48,550.41 299.00,554.41 299.00,556.06 C299.00,559.58 302.78,563.00 306.67,563.00 C309.58,563.00 311.34,561.60 321.24,551.43 ZM 287.99 544.01 C291.96,541.88 320.50,511.83 320.81,509.45 C321.20,506.51 317.04,502.00 313.94,502.00 C311.51,502.00 280.25,531.77 278.39,535.87 C275.69,541.79 282.06,547.18 287.99,544.01 ZM 289.74 502.76 C300.13,492.39 306.00,485.79 306.00,484.48 C306.00,480.66 303.20,478.00 299.19,478.01 C295.77,478.01 294.37,479.14 279.75,493.70 C266.44,506.95 264.00,509.84 264.00,512.36 C264.00,516.32 266.59,519.00 270.39,519.00 C273.05,519.00 275.76,516.72 289.74,502.76 ZM 210.77 429.25 C208.71,426.92 195.00,404.89 195.00,403.93 C195.00,403.04 201.51,397.81 204.67,396.15 C206.68,395.10 207.17,395.58 211.47,402.76 C214.02,407.02 217.88,413.42 220.05,417.00 C222.22,420.57 224.00,423.74 224.00,424.03 C224.00,424.61 213.78,431.00 212.86,431.00 C212.56,431.00 211.62,430.21 210.77,429.25 ZM 259.00 428.12 C256.53,426.61 254.38,424.72 254.22,423.92 C254.07,423.12 257.30,417.08 261.41,410.48 C272.28,393.02 270.59,394.37 276.71,398.22 C279.58,400.02 282.12,401.97 282.35,402.54 C282.98,404.09 266.72,430.44 264.99,430.67 C264.17,430.78 261.48,429.63 259.00,428.12 ZM 232.00 405.50 L 232.00 389.00 L 239.00 389.00 L 246.00 389.00 L 246.00 405.50 L 246.00 422.00 L 239.00 422.00 L 232.00 422.00 L 232.00 405.50 Z" fill="rgb(232,111,62)"/>
</g>
</svg>
