<svg xmlns="http://www.w3.org/2000/svg" viewBox="340 280 350 400">
<g>
<path d="M 538.00 617.00 L 538.00 663.00 L 520.00 663.00 L 520.00 561.00 L 537.96 561.00 L 538.50 599.50 L 547.00 600.11 L 547.00 561.00 L 565.00 561.00 L 565.00 663.00 L 547.00 663.00 L 546.99 643.75 C546.98,633.16 546.70,622.81 546.36,620.75 C545.77,617.17 545.56,617.00 541.87,617.00 ZM 677.08 614.00 L 676.50 629.50 L 577.00 630.02 L 577.00 614.00 L 617.00 614.00 L 617.00 606.30 L 606.07 605.64 C600.06,605.27 591.96,605.27 588.07,605.63 L 581.00 606.29 L 581.00 591.00 L 589.11 591.00 C595.57,591.00 597.11,590.72 596.69,589.63 C596.40,588.87 595.85,586.17 595.47,583.63 L 594.77 579.00 L 613.68 579.00 L 615.50 590.50 L 626.69 590.78 L 637.89 591.06 L 639.06 585.12 C640.42,578.21 640.73,578.03 651.86,578.01 L 659.22 578.00 L 658.58 581.75 C658.22,583.81 657.69,586.74 657.39,588.25 L 656.84 591.00 L 673.00 591.00 L 673.00 606.28 L 667.91 605.68 C665.12,605.34 657.02,605.35 649.91,605.69 L 637.00 606.31 L 637.00 614.00 ZM 495.50 657.40 C487.80,658.22 478.24,659.19 474.25,659.55 L 467.00 660.20 L 466.97 653.85 C466.96,650.36 466.79,637.60 466.60,625.50 C466.41,613.40 466.49,594.61 466.78,583.75 L 467.32 564.00 L 486.00 564.00 L 486.00 602.50 C486.00,638.51 486.11,641.00 487.75,640.97 C488.71,640.95 494.23,640.29 500.00,639.50 C505.77,638.71 511.74,638.05 513.25,638.03 L 516.00 638.00 L 516.00 654.91 L 512.75 655.41 C510.96,655.69 503.20,656.58 495.50,657.40 ZM 444.73 664.19 C443.23,665.14 426.60,665.27 425.67,664.33 C425.30,663.97 425.00,659.02 425.00,653.33 L 425.00 643.00 L 357.00 643.00 L 357.00 627.31 L 382.75 626.83 C396.91,626.56 417.05,626.38 427.50,626.42 L 446.50 626.50 L 446.23 644.95 C446.04,658.21 445.61,663.63 444.73,664.19 ZM 673.00 648.00 L 673.00 663.00 L 582.25 663.00 L 581.62 659.88 C580.83,655.88 580.84,642.63 581.64,637.75 L 582.26 634.00 L 602.00 634.00 L 602.00 648.00 ZM 414.25 616.93 C409.99,617.57 401.96,618.37 396.40,618.69 L 386.31 619.28 L 385.87 612.89 C385.63,609.38 385.45,596.83 385.47,585.00 C385.49,568.43 385.79,563.52 386.75,563.60 C387.44,563.66 394.75,563.77 403.00,563.85 L 418.00 564.00 L 418.00 579.00 L 404.00 579.00 L 404.00 602.23 L 409.75 601.56 C412.91,601.19 416.96,600.64 418.75,600.34 L 422.00 599.78 L 422.00 615.76 ZM 446.00 600.00 L 446.00 623.00 L 441.25 622.82 C438.64,622.71 434.14,622.46 431.25,622.26 L 426.00 621.90 L 426.00 560.93 L 446.50 561.50 L 446.78 571.75 L 447.07 582.00 L 452.48 582.00 C455.45,582.00 458.08,582.34 458.31,582.75 C458.55,583.16 458.52,587.21 458.24,591.75 L 457.74 600.00 ZM 370.50 617.18 C363.90,618.11 357.04,618.90 355.25,618.93 L 352.00 619.00 L 352.00 564.00 L 382.00 564.00 L 382.00 579.00 L 369.71 579.00 L 370.35 586.65 C370.71,590.86 371.00,596.08 371.00,598.26 C371.00,601.86 371.20,602.17 373.25,601.68 C374.49,601.38 377.21,600.83 379.29,600.45 L 383.09 599.76 L 382.79 607.63 L 382.50 615.50 ZM 672.17 568.91 L 671.84 576.00 L 582.00 576.00 L 582.00 561.00 L 626.83 561.00 C651.49,561.00 671.85,561.19 672.08,561.41 C672.31,561.64 672.35,565.01 672.17,568.91 Z" fill="rgb(38,50,77)"/>
<path d="M 471.50 526.26 L 455.50 525.96 L 438.84 509.33 C416.95,487.48 416.91,487.23 432.89,471.58 L 442.00 462.66 L 442.00 389.91 L 434.07 373.14 L 433.46 371.86 C426.56,357.27 424.72,353.40 425.83,350.77 C426.27,349.75 427.15,348.91 428.36,347.71 C432.05,344.01 441.15,340.00 445.83,340.00 C450.88,340.00 460.12,342.98 464.59,346.06 C470.04,349.81 478.15,359.42 481.70,366.33 C483.16,369.17 485.32,375.55 486.48,380.50 C487.65,385.45 488.97,389.43 489.40,389.35 C489.84,389.27 507.98,371.72 529.70,350.35 C551.43,328.98 570.61,310.71 572.33,309.75 C576.57,307.38 585.03,307.46 589.79,309.91 C600.38,315.36 604.92,327.36 600.01,336.97 C598.92,339.12 591.16,347.69 582.76,356.02 C574.25,364.47 568.03,371.38 568.70,371.65 C574.27,373.89 578.94,381.65 578.98,388.74 C579.00,392.58 579.37,393.21 582.99,395.49 C588.97,399.27 592.30,404.95 592.83,412.31 C593.25,418.14 593.50,418.65 598.00,422.69 C604.08,428.15 605.33,431.27 604.83,439.73 C604.06,452.97 593.48,469.59 573.24,489.37 C555.83,506.37 548.33,511.61 531.31,518.65 C525.56,521.02 519.58,523.88 518.02,524.98 C517.65,525.25 517.35,525.49 517.03,525.69 C514.87,527.07 511.79,527.01 476.98,526.36 C475.24,526.33 473.41,526.29 471.50,526.26 ZM 526.50 505.73 C531.45,503.89 538.08,500.74 541.23,498.72 C547.28,494.85 565.00,479.45 565.00,478.07 C565.00,477.62 563.28,476.98 561.17,476.64 C555.27,475.70 550.83,472.17 547.86,466.07 C545.46,461.15 544.80,460.54 540.68,459.50 C535.15,458.09 529.58,454.00 527.32,449.70 C526.40,447.94 525.53,443.83 525.39,440.56 C525.16,435.18 524.87,434.49 522.32,433.19 C517.92,430.94 515.87,428.83 513.88,424.50 C511.53,419.38 511.54,412.59 513.90,407.50 C515.14,404.82 527.71,391.63 551.87,367.65 C583.75,336.02 588.00,331.44 588.00,328.73 C588.00,324.46 585.47,322.00 581.10,322.02 C577.71,322.04 575.05,324.47 535.25,363.84 C512.01,386.83 493.00,405.97 493.00,406.39 C493.00,406.80 494.97,409.92 497.38,413.32 C506.96,426.83 510.53,437.26 509.73,449.45 C509.19,457.72 505.83,468.74 503.58,469.61 C502.08,470.18 493.00,466.41 493.00,465.22 C493.00,464.75 493.72,461.92 494.61,458.94 C495.74,455.13 496.10,450.95 495.81,444.92 C495.31,434.55 492.39,427.93 484.28,418.85 C481.39,415.61 478.81,411.95 478.55,410.73 C478.29,409.50 477.13,403.33 475.96,397.00 C474.80,390.67 473.21,383.08 472.44,380.13 C468.86,366.35 457.07,353.98 447.55,354.02 C440.30,354.04 440.31,354.19 448.49,371.97 L 456.00 388.30 L 456.00 465.46 L 481.74 490.59 L 507.47 515.71 L 512.49 512.39 C515.24,510.56 521.55,507.57 526.50,505.73 ZM 321.24 551.43 C327.43,545.07 332.82,538.99 333.22,537.92 C334.94,533.30 329.36,527.57 325.10,529.59 C324.05,530.09 317.75,535.73 311.10,542.12 C302.48,550.41 299.00,554.41 299.00,556.06 C299.00,559.58 302.78,563.00 306.67,563.00 C309.58,563.00 311.34,561.60 321.24,551.43 ZM 287.99 544.01 C291.96,541.88 320.50,511.83 320.81,509.45 C321.20,506.51 317.04,502.00 313.94,502.00 C311.51,502.00 280.25,531.77 278.39,535.87 C275.69,541.79 282.06,547.18 287.99,544.01 ZM 289.74 502.76 C300.13,492.39 306.00,485.79 306.00,484.48 C306.00,480.66 303.20,478.00 299.19,478.01 C295.77,478.01 294.37,479.14 279.75,493.70 C266.44,506.95 264.00,509.84 264.00,512.36 C264.00,516.32 266.59,519.00 270.39,519.00 C273.05,519.00 275.76,516.72 289.74,502.76 ZM 210.77 429.25 C208.71,426.92 195.00,404.89 195.00,403.93 C195.00,403.04 201.51,397.81 204.67,396.15 C206.68,395.10 207.17,395.58 211.47,402.76 C214.02,407.02 217.88,413.42 220.05,417.00 C222.22,420.57 224.00,423.74 224.00,424.03 C224.00,424.61 213.78,431.00 212.86,431.00 C212.56,431.00 211.62,430.21 210.77,429.25 ZM 259.00 428.12 C256.53,426.61 254.38,424.72 254.22,423.92 C254.07,423.12 257.30,417.08 261.41,410.48 C272.28,393.02 270.59,394.37 276.71,398.22 C279.58,400.02 282.12,401.97 282.35,402.54 C282.98,404.09 266.72,430.44 264.99,430.67 C264.17,430.78 261.48,429.63 259.00,428.12 ZM 232.00 405.50 L 232.00 389.00 L 239.00 389.00 L 246.00 389.00 L 246.00 405.50 L 246.00 422.00 L 239.00 422.00 L 232.00 422.00 L 232.00 405.50 Z" fill="rgb(244,115,63)"/>
<path d="M 458.38 522.07 C457.38,520.38 454.09,517.80 450.58,515.96 C446.47,513.81 443.71,511.52 442.05,508.89 C440.70,506.75 439.27,505.00 438.86,505.00 C437.03,505.00 432.15,499.19 431.53,496.26 C431.13,494.34 429.66,492.18 427.92,490.95 C426.02,489.59 425.00,487.99 425.00,486.35 C425.00,482.65 430.74,475.26 435.10,473.33 C440.89,470.78 442.90,467.30 443.49,458.80 C443.78,454.79 444.44,449.70 444.98,447.50 C445.51,445.30 445.97,441.25 445.99,438.50 C446.04,431.60 446.89,429.00 449.08,429.00 C451.80,429.00 453.20,432.48 452.83,438.33 C452.66,441.17 452.90,448.76 453.37,455.19 C454.40,469.13 454.77,469.79 468.17,481.35 C471.26,484.02 474.60,488.01 475.60,490.22 C477.35,494.11 477.35,494.27 475.53,495.60 C474.49,496.36 473.89,497.22 474.18,497.51 C474.93,498.27 478.00,496.97 478.00,495.89 C478.00,495.40 479.29,495.00 480.87,495.00 C482.99,495.00 484.82,496.17 487.87,499.48 C490.14,501.94 492.00,504.50 492.00,505.16 C492.00,506.86 498.92,513.03 502.54,514.57 C504.22,515.27 508.04,515.77 511.04,515.66 C515.93,515.49 516.53,515.22 516.83,513.14 C517.36,509.47 524.79,506.62 531.60,507.47 C534.55,507.84 537.22,508.55 537.53,509.04 C538.55,510.69 535.13,515.70 532.14,516.94 C530.20,517.74 527.25,517.93 523.59,517.47 L 518.00 516.77 L 517.38 519.86 C516.33,525.09 515.18,525.44 502.70,524.32 C496.44,523.75 487.31,523.64 482.00,524.06 C476.77,524.47 469.71,524.85 466.31,524.91 C460.48,524.99 460.01,524.83 458.38,522.07 ZM 542.25 507.88 C540.46,507.37 539.00,506.34 539.00,505.61 C539.00,503.48 542.98,499.00 544.86,499.00 C545.80,499.00 548.94,496.78 551.83,494.06 C554.73,491.35 558.05,488.99 559.22,488.81 C562.18,488.38 567.29,478.53 566.55,474.67 C566.21,472.86 566.57,471.29 567.53,470.32 C569.11,468.75 572.00,469.17 572.00,470.97 C572.00,471.54 572.69,472.00 573.54,472.00 C574.74,472.00 574.85,471.59 574.04,470.07 C571.60,465.52 572.74,462.35 578.62,457.31 C581.71,454.67 585.85,451.04 587.82,449.25 C592.20,445.29 593.19,445.22 594.65,448.75 C597.50,455.64 597.21,457.54 592.11,465.13 C589.02,469.73 585.89,473.10 583.42,474.49 C580.54,476.10 579.38,477.50 578.87,479.96 C577.96,484.41 573.52,487.92 568.74,487.96 C565.17,488.00 564.85,488.28 562.63,493.25 C561.12,496.66 558.58,499.94 555.40,502.59 C550.96,506.29 546.64,509.14 545.82,508.91 C545.64,508.86 544.04,508.40 542.25,507.88 ZM 553.15 469.68 C552.22,468.56 552.38,467.75 553.87,465.91 C555.52,463.87 555.99,463.74 557.43,464.94 C559.68,466.81 559.05,470.42 556.41,470.80 C555.26,470.96 553.80,470.46 553.15,469.68 ZM 498.00 463.77 C498.00,463.02 498.54,461.86 499.20,461.20 C501.20,459.20 503.17,459.78 502.82,462.25 C502.46,464.76 498.00,466.17 498.00,463.77 ZM 548.71 458.90 C546.93,457.86 543.52,457.20 539.28,457.07 C532.57,456.86 525.32,443.54 527.95,436.25 C529.50,431.98 528.29,430.35 522.48,428.89 C518.28,427.83 517.76,427.25 515.12,420.70 C513.65,417.03 513.72,411.12 515.28,408.03 C515.99,406.62 517.94,405.16 519.85,404.61 C522.57,403.83 523.60,402.69 525.52,398.35 C526.82,395.43 529.81,391.23 532.19,389.03 C535.98,385.51 537.09,385.02 541.33,385.01 L 546.16 385.00 L 545.52 388.25 C544.77,392.08 534.78,402.23 529.65,404.37 C526.91,405.52 526.06,406.68 524.60,411.31 C522.61,417.65 523.16,419.55 527.97,422.98 C530.30,424.64 531.37,424.87 532.91,424.05 C533.99,423.47 535.94,423.00 537.26,423.00 C539.94,423.00 544.00,419.23 544.00,416.75 C544.00,414.59 555.72,403.00 557.90,403.00 C559.58,403.00 566.09,394.63 569.37,388.26 C572.80,381.61 568.41,376.93 558.27,376.41 C552.15,376.10 551.00,375.56 551.00,372.98 C551.00,368.79 564.47,356.57 570.29,355.47 C573.99,354.78 574.00,354.79 574.00,358.24 C574.00,360.50 572.96,363.14 571.00,365.84 C567.40,370.81 567.28,372.28 570.30,374.68 C575.26,378.61 577.19,382.49 577.51,389.14 C577.67,392.64 578.13,396.52 578.53,397.76 C579.11,399.61 578.93,399.91 577.58,399.39 C573.22,397.72 562.00,405.33 562.00,409.97 C562.00,412.99 553.21,422.00 550.25,422.00 C547.62,422.00 540.00,429.09 540.00,431.54 C540.00,432.21 539.38,433.27 538.63,433.89 C535.62,436.39 535.74,447.30 538.79,448.47 C539.64,448.80 542.40,448.76 544.91,448.39 C549.05,447.77 550.46,446.71 560.14,436.95 C566.01,431.03 571.85,425.87 573.12,425.46 C576.29,424.46 580.56,420.00 582.27,415.91 C583.94,411.91 586.44,409.57 588.29,410.28 C589.02,410.56 590.26,412.75 591.04,415.14 C591.83,417.54 593.46,420.40 594.67,421.50 C595.87,422.60 597.15,424.99 597.52,426.80 L 598.18 430.10 L 594.84 428.70 C593.00,427.93 589.74,426.10 587.58,424.63 C583.67,421.97 583.66,421.97 581.56,423.94 C580.41,425.03 578.87,427.93 578.14,430.39 C577.05,434.07 575.20,436.31 567.72,442.98 C562.72,447.44 557.78,452.48 556.74,454.19 C553.22,459.97 551.89,460.75 548.71,458.90 ZM 499.69 449.21 C498.65,448.06 497.69,444.05 497.01,437.96 C496.43,432.76 495.72,427.83 495.44,427.00 C495.16,426.17 492.67,423.76 489.91,421.64 C482.17,415.67 482.07,415.45 480.07,399.18 C479.46,394.26 478.29,389.77 477.21,388.18 C476.20,386.71 474.16,381.81 472.66,377.29 C470.12,369.61 470.04,368.85 471.42,365.54 C473.90,359.60 478.12,361.25 481.57,369.51 C482.82,372.50 483.07,375.14 482.61,380.47 C482.02,387.31 482.08,387.59 485.10,390.80 L 488.19 394.10 L 492.85 389.76 C495.41,387.38 498.92,384.84 500.65,384.13 C502.39,383.42 504.09,382.09 504.43,381.17 C505.96,377.05 508.69,373.21 513.94,367.82 C518.79,362.83 520.12,362.00 523.24,362.00 C525.24,362.00 527.11,362.37 527.39,362.82 C528.44,364.52 524.72,372.65 521.26,376.22 C517.53,380.06 510.10,384.14 506.41,384.37 C504.97,384.46 504.46,385.02 504.76,386.19 C505.47,388.89 501.01,396.69 496.32,400.96 C491.52,405.32 491.16,406.63 493.81,410.12 C498.71,416.57 500.07,420.08 499.08,423.67 C498.17,426.95 498.28,427.20 500.99,428.15 C506.81,430.18 508.87,436.77 506.24,445.00 C504.35,450.93 502.39,452.19 499.69,449.21 ZM 444.87 421.35 C443.09,419.20 442.41,393.90 443.98,388.07 C444.86,384.80 445.53,384.00 447.38,384.00 C448.65,384.00 450.50,384.90 451.49,385.99 C454.14,388.91 454.77,401.42 452.65,408.82 C451.76,411.95 450.55,416.41 449.97,418.75 C448.87,423.23 447.16,424.10 444.87,421.35 ZM 435.67 370.90 C432.44,367.65 431.13,365.42 430.66,362.38 C430.31,360.11 429.34,357.70 428.51,357.01 C426.14,355.04 426.62,350.30 429.37,348.50 C432.08,346.72 437.31,347.98 436.49,350.22 C436.24,350.92 438.04,354.85 440.51,358.95 C445.66,367.50 445.98,369.73 442.52,372.98 L 440.04 375.31 L 435.67 370.90 ZM 533.02 356.04 C531.10,352.44 531.97,349.93 536.87,345.04 C542.06,339.84 549.86,335.62 552.43,336.61 C554.61,337.45 554.46,338.11 550.58,344.70 C544.23,355.49 535.68,361.01 533.02,356.04 ZM 453.00 353.50 C449.42,351.63 445.12,350.08 443.44,350.05 C441.76,350.02 439.60,349.43 438.65,348.73 C437.02,347.54 437.04,347.33 438.99,345.25 C442.04,341.97 444.98,341.63 450.37,343.94 C453.01,345.08 456.05,346.00 457.13,346.00 C460.27,346.00 464.70,348.73 465.30,351.03 C465.89,353.28 463.00,357.04 460.75,356.95 C460.06,356.92 456.58,355.37 453.00,353.50 ZM 576.02 352.04 C574.75,351.23 574.83,350.71 576.54,348.30 C577.63,346.76 579.15,344.28 579.92,342.78 C580.68,341.28 583.02,338.87 585.12,337.42 C587.22,335.96 589.14,334.04 589.40,333.14 C589.78,331.78 590.91,325.19 591.26,322.26 C591.32,321.84 591.92,320.93 592.61,320.24 C595.19,317.66 601.00,322.68 601.00,327.49 C601.00,328.25 599.20,330.96 597.00,333.50 C594.41,336.50 593.00,339.10 593.00,340.89 C593.00,344.29 587.13,350.52 583.20,351.32 C581.71,351.61 579.83,352.11 579.00,352.42 C578.17,352.73 576.84,352.56 576.02,352.04 ZM 476.57 333.43 C475.71,332.56 475.00,330.27 475.00,328.32 C475.00,324.96 475.14,324.82 477.74,325.47 C481.33,326.37 483.00,327.82 483.00,330.05 C483.00,331.92 480.51,335.00 479.00,335.00 C478.53,335.00 477.44,334.29 476.57,333.43 ZM 523.19 332.96 C520.29,330.26 520.42,326.84 523.59,323.08 C526.43,319.70 529.43,319.08 530.42,321.66 C532.17,326.21 532.02,329.71 529.96,332.32 C527.44,335.53 526.09,335.66 523.19,332.96 ZM 555.08 334.05 C552.87,332.69 556.06,327.77 564.42,319.64 C568.86,315.32 573.54,311.38 574.82,310.89 C576.09,310.40 579.60,310.00 582.62,310.00 C587.97,310.00 588.14,310.09 589.61,313.61 C590.44,315.59 590.95,317.38 590.75,317.59 C590.54,317.79 587.41,318.37 583.79,318.89 C577.06,319.84 573.00,321.37 573.00,322.96 C573.00,323.45 570.57,325.92 567.59,328.47 C562.07,333.19 557.20,335.36 555.08,334.05 ZM 466.56 318.93 C464.53,316.69 463.03,314.11 463.20,313.18 C463.38,312.26 465.10,310.74 467.01,309.81 C470.38,308.17 470.56,308.18 472.25,310.17 C474.88,313.26 474.31,323.00 471.50,323.00 C470.80,323.00 468.58,321.17 466.56,318.93 ZM 498.75 321.61 C495.81,319.38 495.47,314.59 497.98,310.54 C502.51,303.20 507.00,303.79 507.00,311.71 C507.00,314.66 506.32,317.05 505.01,318.71 C503.92,320.10 503.27,321.63 503.57,322.12 C504.42,323.49 500.71,323.10 498.75,321.61 ZM 532.56 314.78 C529.06,309.78 531.61,306.71 536.96,309.48 C540.67,311.40 541.70,313.45 539.99,315.51 C538.17,317.70 534.34,317.32 532.56,314.78 ZM 468.18 326.00 C463.60,318.87 460.09,312.67 460.37,312.20 C460.66,311.74 463.17,309.95 465.96,308.22 L 471.02 305.07 L 473.40 308.79 C482.01,322.18 487.00,330.55 487.00,331.59 C487.00,332.60 478.19,339.05 476.91,338.98 C476.69,338.96 472.76,333.12 468.18,326.00 ZM 521.22 335.73 L 516.03 332.46 L 521.15 323.98 C523.97,319.32 527.37,313.59 528.72,311.26 C530.06,308.93 531.58,306.76 532.09,306.44 C532.60,306.13 535.51,307.29 538.55,309.03 L 544.08 312.19 L 542.04 315.35 C540.92,317.08 537.21,323.11 533.79,328.75 C530.38,334.39 527.32,339.00 527.00,339.00 C526.67,339.00 524.07,337.53 521.22,335.73 ZM 496.00 298.90 L 508.50 299.50 L 508.78 314.75 L 509.05 330.00 L 496.00 330.00 Z" fill="rgb(248,109,55)"/>
</g>
</svg>
